<svg width="125" height="125" viewBox="0 0 125 125" fill="none" xmlns="http://www.w3.org/2000/svg">
<path fill-rule="evenodd" clip-rule="evenodd" d="M17.3551 112.504L7.32422 0H117.547L107.506 112.486L62.3691 125L17.3551 112.504Z" fill="#0071BC"/>
<path fill-rule="evenodd" clip-rule="evenodd" d="M62.5284 115.429L98.9558 105.407L107.491 9.36926H62.5284V115.429Z" fill="#29ABE2"/>
<path fill-rule="evenodd" clip-rule="evenodd" d="M30.2848 50.7026L31.4931 64.4805L62.5284 50.7026V36.9023L30.2848 50.7026Z" fill="#B3B3B3"/>
<path fill-rule="evenodd" clip-rule="evenodd" d="M96.9009 22.1714L62.5284 36.9024V50.7027L95.7158 35.9493L96.9009 22.1714Z" fill="#E6E6E6"/>
<path fill-rule="evenodd" clip-rule="evenodd" d="M62.5284 86.7522L62.4218 86.7682L47.0305 82.6348L46.025 71.645H32.1729L34.106 93.2956L62.4187 101.135L62.5284 101.109V86.7522Z" fill="#E6E6E6"/>
<path fill-rule="evenodd" clip-rule="evenodd" d="M62.5284 50.7026V64.4805H79.3793L77.8478 82.494L62.5284 86.7641V101.12L90.7472 93.2805L94.4631 50.7026H62.5284Z" fill="white"/>
<path fill-rule="evenodd" clip-rule="evenodd" d="M62.5284 50.7026H30.2848L31.4931 64.4805H62.5284V50.7026Z" fill="#E6E6E6"/>
<path fill-rule="evenodd" clip-rule="evenodd" d="M62.5284 35.9493V22.1714H62.3884H27.8351L29.0578 35.9493H62.5284Z" fill="#E6E6E6"/>
<path fill-rule="evenodd" clip-rule="evenodd" d="M62.5284 22.1714V35.7765V35.9493H95.7158L96.9009 22.1714H62.5284Z" fill="white"/>
</svg>
