<svg width="125" height="125" viewBox="0 0 125 125" fill="none" xmlns="http://www.w3.org/2000/svg">
<path fill-rule="evenodd" clip-rule="evenodd" d="M17.3548 112.505L7.32422 0H117.543L107.502 112.487L62.3661 125L17.3548 112.505Z" fill="#E44D26"/>
<path fill-rule="evenodd" clip-rule="evenodd" d="M62.4335 115.435L98.9053 105.324L107.486 9.19885H62.4335V115.435Z" fill="#F16529"/>
<path d="M44.1749 50.9253H62.4335V64.7233H31.5558L27.8341 22.9973H62.4335V36.7957H42.9139L44.1749 50.9253Z" fill="#EBEBEB"/>
<path d="M62.3731 86.7768L62.4335 86.7607V101.117L62.37 101.134L34.1054 93.2879L32.1723 71.6227H46.0235L47.0059 82.6274L62.3731 86.7768Z" fill="#EBEBEB"/>
<path d="M62.3858 22.9973H96.9506L95.7151 36.7957H62.3858V22.9973Z" fill="white"/>
<path d="M62.3858 64.7233V50.9253H94.4596L94.1229 54.6305L90.6729 93.2879L62.3858 101.128V86.7723L77.7752 82.6186L79.3768 64.7233H62.3858Z" fill="white"/>
</svg>
